<?xml version="1.0" encoding="iso-8859-1"?>
<!-- Generator: Adobe Illustrator 19.0.0, SVG Export Plug-In . SVG Version: 6.00 Build 0)  -->
<svg version="1.1" id="Layer_1" xmlns="http://www.w3.org/2000/svg" xmlns:xlink="http://www.w3.org/1999/xlink" x="0px" y="0px"
	 viewBox="0 0 511.996 511.996" style="enable-background:new 0 0 511.996 511.996;" xml:space="preserve">
<g>
	<g>
		<path style="fill:#7383BF;" d="M378.791,501.758H138.53c-51.497,0-91.812-44.339-86.927-95.601l23.02-241.787
			c5.007-52.552,49.152-92.692,101.939-92.692h162.55c52.541,0,96.553,39.762,101.878,92.027l19.804,245.893
			C464.408,460.143,429.469,501.758,378.791,501.758"/>
		<path style="fill:#7383BF;" d="M195.588,71.678H316.41c-4.762-23.337-25.446-40.96-50.176-40.96h-20.48
			C221.034,30.718,200.339,48.341,195.588,71.678 M327.674,92.158h-143.36c-5.652,0-10.24-4.577-10.24-10.24
			c0-39.516,32.164-71.68,71.68-71.68h20.48c39.526,0,71.68,32.164,71.68,71.68C337.914,87.581,333.337,92.158,327.674,92.158"/>
	</g>
	<path style="fill:#424A60;" d="M74.854,162.773C103.148,235.272,173.486,286.718,256,286.718
		c85.207,0,157.44-54.866,183.767-131.133c-8.817-48.2-50.883-83.907-100.649-83.907h-162.55
		C124.314,71.678,80.599,111.01,74.854,162.773"/>
	<g>
		<path style="fill:#ECBA16;" d="M174.078,337.918c-5.652,0-10.24-4.577-10.24-10.24v-184.32c0-5.663,4.588-10.24,10.24-10.24
			s10.24,4.577,10.24,10.24v184.32C184.318,333.341,179.73,337.918,174.078,337.918"/>
		<path style="fill:#ECBA16;" d="M337.918,337.918c-5.652,0-10.24-4.577-10.24-10.24v-184.32c0-5.663,4.588-10.24,10.24-10.24
			s10.24,4.577,10.24,10.24v184.32C348.158,333.341,343.57,337.918,337.918,337.918"/>
		<path style="fill:#ECBA16;" d="M194.558,153.598h-40.96c-5.652,0-10.24-4.577-10.24-10.24c0-5.663,4.588-10.24,10.24-10.24h40.96
			c5.652,0,10.24,4.577,10.24,10.24C204.798,149.021,200.21,153.598,194.558,153.598"/>
		<path style="fill:#ECBA16;" d="M358.398,153.598h-40.96c-5.652,0-10.24-4.577-10.24-10.24c0-5.663,4.588-10.24,10.24-10.24h40.96
			c5.652,0,10.24,4.577,10.24,10.24C368.638,149.021,364.05,153.598,358.398,153.598"/>
	</g>
	<g>
		<path style="fill:#424A60;" d="M163.838,460.798h184.32v-40.96h-184.32V460.798z"/>
		<path style="fill:#424A60;" d="M51.599,406.156l3.574-37.519H29.03c-16.036,0-29.03,12.995-29.03,29.03v34.55
			c0,32.758,26.542,59.3,59.3,59.3h38.38C67.615,475.543,48.128,442.652,51.599,406.156"/>
		<path style="fill:#424A60;" d="M460.397,406.156l-2.898-37.519h25.467c16.036,0,29.03,12.995,29.03,29.03v34.55
			c0,32.758-26.542,59.3-59.3,59.3h-33.372C449.389,475.543,463.868,442.652,460.397,406.156"/>
	</g>
	<g>
		<path style="fill:#ED8A19;" d="M153.598,368.638h40.96v-40.96h-40.96V368.638z"/>
		<path style="fill:#ED8A19;" d="M317.438,368.638h40.96v-40.96h-40.96V368.638z"/>
	</g>
</g>
<g>
</g>
<g>
</g>
<g>
</g>
<g>
</g>
<g>
</g>
<g>
</g>
<g>
</g>
<g>
</g>
<g>
</g>
<g>
</g>
<g>
</g>
<g>
</g>
<g>
</g>
<g>
</g>
<g>
</g>
</svg>
